<svg width="1203" height="610" viewBox="0 0 1203 610" fill="none" xmlns="http://www.w3.org/2000/svg">
<mask id="mask0_1740_1074" style="mask-type:alpha" maskUnits="userSpaceOnUse" x="0" y="0" width="1203" height="610">
<rect width="1203" height="610" fill="#D9D9D9"/>
</mask>
<g mask="url(#mask0_1740_1074)">
<ellipse cx="779.5" cy="66.5" rx="703.5" ry="449.5" fill="url(#paint0_radial_1740_1074)" fill-opacity="0.2"/>
<path d="M315.719 23.6908V63.9198L204.772 127.974V87.7478L315.719 23.6908ZM356.991 1.72021L391.829 21.8348V149.944L356.991 129.833V1.72021ZM544.047 23.6908V63.9198L433.1 127.974V87.7478L544.047 23.6908ZM585.319 1.72021L620.155 21.8348V149.944L585.319 129.833V1.72021ZM772.375 23.6908V63.9198L661.427 127.974V87.7478L772.375 23.6908ZM813.646 1.72021L848.484 21.8348V149.944L813.646 129.833V1.72021ZM1000.7 23.6908V63.9198L889.754 127.974V87.7478L1000.7 23.6908ZM1041.97 1.72021L1076.81 21.8348V149.944L1041.97 129.833V1.72021ZM1190.98 347.683L1156.14 327.568V199.459L1190.98 219.573V347.683ZM1189.37 394.411L1154.53 414.524L1043.58 350.468L1078.42 330.355L1189.37 394.411ZM1190.98 743.154L1156.14 723.046V594.935L1190.98 615.048V743.154ZM1189.37 789.881L1154.53 810.004L1043.58 745.94L1078.42 725.831L1189.37 789.881ZM1152.92 988.553V1116.67L1118.08 1096.54V968.445L1152.92 988.553ZM1190.98 1138.64L1156.14 1118.53V990.415L1190.98 1010.52V1138.64ZM964.255 1183.5L853.308 1119.45L888.147 1099.33L999.095 1163.39L964.255 1183.5ZM735.928 1183.5L624.982 1119.45L659.818 1099.33L770.767 1163.39L735.928 1183.5ZM507.6 1183.5L396.653 1119.45L431.491 1099.33L542.438 1163.39L507.6 1183.5ZM279.272 1183.5L168.325 1119.45L203.163 1099.33L314.111 1163.39L279.272 1183.5ZM14.499 990.415L49.3374 1010.52V1138.64L14.499 1118.53V990.415ZM16.1062 943.689L50.9445 923.565L161.893 987.63L127.055 1007.74L16.1062 943.689ZM14.499 594.935L49.3374 615.048V743.154L14.499 723.046V594.935ZM16.1077 548.206L50.9445 528.094L161.893 592.148L127.055 612.263L16.1077 548.206ZM14.499 199.459L49.3374 219.573V347.683L14.499 327.568V199.459ZM16.1077 152.731L50.9445 132.618L161.893 196.674L127.055 216.785L16.1077 152.731ZM128.663 1.72021L163.5 21.8348V149.944L128.663 129.833V1.72021ZM315.719 107.861L204.772 171.915V131.689L315.719 67.6333V107.861ZM428.275 174.703L393.437 194.815L282.49 130.761L317.328 110.648L399.512 158.095L428.275 174.703ZM429.883 171.915L401.119 155.31L395.045 151.803V23.6908L429.883 43.8053V171.915ZM544.047 107.861L433.1 171.915V131.689L544.047 67.6333V107.861ZM656.603 174.703L621.764 194.815L510.817 130.761L545.656 110.648L627.408 157.846L656.603 174.703ZM658.211 171.915L629.017 155.061L623.373 151.803V23.6908L658.211 43.8053V171.915ZM772.375 107.861L661.427 171.915V131.689L772.375 67.6333V107.861ZM884.93 174.703L850.093 194.815L739.146 130.761L773.983 110.648L855.736 157.846L884.93 174.703ZM886.538 171.915L857.344 155.061L851.701 151.803V23.6908L886.538 43.8053V171.915ZM1000.7 107.861L889.754 171.915V131.689L1000.7 67.6333V107.861ZM1113.26 174.703L1078.42 194.815L967.473 130.761L1002.31 110.648L1084.93 158.348L1113.26 174.703ZM1114.87 171.915L1086.54 155.563L1080.03 151.803V23.6908L1114.87 43.8053V171.915ZM1118.08 305.598V177.489L1152.92 197.602V325.711L1118.08 305.598ZM1116.47 436.494L1005.53 372.439L1040.37 352.327L1151.31 416.381L1116.47 436.494ZM1114.87 567.392L1086.54 551.039L1080.03 547.278V419.168L1114.87 439.281V567.392ZM1118.08 701.075V572.964L1152.92 593.077V721.184L1118.08 701.075ZM1116.47 831.975L1005.53 767.91L1040.37 747.802L1151.31 811.851L1116.47 831.975ZM1114.87 962.874L1080.03 942.751V814.636L1114.87 834.76V962.874ZM52.5532 1140.5V1012.39L87.3916 1032.49V1160.61L52.5532 1140.5ZM89.0003 901.595L199.947 965.66L165.109 985.768L54.1619 921.719L89.0003 901.595ZM125.446 790.819V918.933L90.6075 898.81V770.695L125.446 790.819ZM89.0003 506.124L170.753 553.322L199.947 570.177L165.109 590.291L54.1619 526.235L89.0003 506.124ZM90.6075 375.226L125.446 395.34V523.45L90.6075 503.337V375.226ZM89.0003 110.648L170.753 157.846L199.947 174.703L165.109 194.815L54.1619 130.761L89.0003 110.648ZM201.556 171.915L172.361 155.061L166.717 151.803V23.6908L201.556 43.8053V171.915ZM355.381 216.785L244.435 152.731L279.273 132.618L390.22 196.674L355.381 216.785ZM583.71 216.785L472.763 152.731L507.601 132.618L618.548 196.674L583.71 216.785ZM812.038 216.785L701.09 152.731L735.928 132.618L846.875 196.674L812.038 216.785ZM1040.37 216.785L929.418 152.731L964.257 132.618L1075.2 196.674L1040.37 216.785ZM1003.92 329.427L1114.87 265.372V305.598L1003.92 369.654V329.427ZM1038.76 523.45L1003.92 503.337V375.226L1038.76 395.34V523.45ZM1041.97 525.307V397.198L1076.81 417.311V545.422L1041.97 525.307ZM1113.26 570.177L1078.42 590.291L967.473 526.235L1002.31 506.124L1084.93 553.824L1113.26 570.177ZM1114.87 613.19L1003.92 677.243V637.018L1041.16 615.52L1041.16 615.519L1079.21 593.55L1079.21 593.548L1114.87 572.964V613.19ZM1003.92 724.908L1114.87 660.848V701.075L1003.92 765.125V724.908ZM1038.76 918.933L1003.92 898.81V770.695L1038.76 790.819V918.933ZM1041.97 920.78V792.666L1076.81 812.79V940.903L1041.97 920.78ZM1114.87 1008.66L1003.92 1072.73V1032.49L1041.16 1011H1041.16L1079.21 989.03H1079.21L1114.87 968.445V1008.66ZM965.864 1012.39L1000.7 1032.49V1160.61L965.864 1140.5V1012.39ZM927.81 1118.53V990.415L962.647 1010.52V1138.64L927.81 1118.53ZM775.591 1120.38L886.538 1056.33V1096.54L775.591 1160.61V1120.38ZM737.537 1012.39L772.375 1032.49V1160.61L737.537 1140.5V1012.39ZM699.481 1118.53V990.415L734.32 1010.52V1138.64L699.481 1118.53ZM547.263 1120.38L658.211 1056.33V1096.54L547.263 1160.61V1120.38ZM509.209 1012.39L544.047 1032.49V1160.61L509.209 1140.5V1012.39ZM471.154 1118.53V990.415L505.993 1010.52V1138.64L471.154 1118.53ZM318.936 1120.38L429.883 1056.33V1096.54L318.936 1160.61V1120.38ZM280.881 1012.39L315.719 1032.49V1160.61L280.881 1140.5V1012.39ZM242.826 1118.53V990.415L277.664 1010.52V1138.64L242.826 1118.53ZM90.6075 1120.38L201.556 1056.33V1096.54L90.6075 1160.61V1120.38ZM201.556 1052.6L90.6075 1116.67V1076.44L201.556 1012.39V1052.6ZM163.5 812.79V940.903L128.663 920.78V792.666L163.5 812.79ZM127.055 747.802L238.001 811.851L203.163 831.975L92.2162 767.91L127.055 747.802ZM90.6075 724.908L201.556 660.848V701.075L90.6075 765.125V724.908ZM201.556 657.131L90.6075 721.184V680.967L201.556 616.907V657.131ZM166.717 547.278V419.168L201.556 439.281V567.392L172.361 550.537L166.717 547.278ZM163.5 417.311V545.422L128.663 525.307V397.198L163.5 417.311ZM127.055 352.327L238.001 416.381L203.163 436.494L92.2162 372.439L127.055 352.327ZM90.6075 329.427L201.556 265.372V305.598L90.6075 369.654V329.427ZM201.556 261.656L90.6075 325.711V285.486L201.556 221.429V261.656ZM429.883 261.656L318.936 325.711V285.486L429.883 221.429V261.656ZM658.211 261.656L547.263 325.711V285.486L658.211 221.429V261.656ZM886.538 261.656L775.591 325.711V285.486L886.538 221.429V261.656ZM965.864 349.54V221.429L1000.7 241.544V369.654L971.508 352.799L965.864 349.54ZM1002.31 634.233L891.363 570.177L920.557 553.322L926.201 550.065L1037.15 614.12L1002.31 634.233ZM965.864 745.016V616.907L1000.7 637.018V765.125L971.508 748.278L965.864 745.016ZM889.754 968.445L924.594 988.553V1116.67L889.754 1096.54V968.445ZM775.591 1076.44L886.538 1012.39V1052.6L775.591 1116.67V1076.44ZM775.591 1032.49L812.828 1011H812.832L850.884 989.03H850.885L886.538 968.445V1008.66L775.591 1072.73V1032.49ZM661.427 968.445L696.266 988.553V1116.67L661.427 1096.54V968.445ZM547.263 1076.44L658.211 1012.39V1052.6L547.263 1116.67V1076.44ZM547.263 1032.49L584.499 1011H584.504L622.557 989.03H622.558L658.211 968.445V1008.66L547.263 1072.73V1032.49ZM433.1 968.445L467.938 988.553V1116.67L433.1 1096.54V968.445ZM318.936 1076.44L429.883 1012.39V1052.6L318.936 1116.67V1076.44ZM318.936 1032.49L356.173 1011H356.176L394.229 989.03H394.23L429.883 968.445V1008.66L318.936 1072.73V1032.49ZM204.772 968.445L239.61 988.553V1116.67L204.772 1096.54V968.445ZM242.01 813.251L280.064 791.281H280.066L315.719 770.695V810.928L204.772 874.992V834.76L242.01 813.251ZM165.109 725.831L276.057 789.881L241.218 810.004L130.272 745.94L165.109 725.831ZM239.61 593.077V721.184L204.772 701.075V572.964L239.61 593.077ZM204.772 527.165L315.719 463.109V503.337L204.772 567.392V527.165ZM242.01 417.781L280.064 395.811H280.066L315.719 375.226V415.452L204.772 479.509V439.281L242.01 417.781ZM165.109 330.355L276.057 394.411L241.218 414.524L130.272 350.468L165.109 330.355ZM239.61 325.711L204.772 305.598V177.489L239.61 197.602V325.711ZM277.664 347.683L242.826 327.568V199.459L277.664 219.573V347.683ZM315.719 369.654L286.956 353.048L280.881 349.54V221.429L315.719 241.544V369.654ZM429.883 305.598L318.936 369.654V329.427L429.883 265.372V305.598ZM467.938 325.711L433.1 305.598V177.489L467.938 197.602V325.711ZM505.993 347.683L471.154 327.568V199.459L505.993 219.573V347.683ZM544.047 369.654L515.284 353.048L509.209 349.54V221.429L544.047 241.544V369.654ZM658.211 305.598L547.263 369.654V329.427L658.211 265.372V305.598ZM696.266 325.711L661.427 305.598V177.489L696.266 197.602V325.711ZM734.32 347.683L699.481 327.568V199.459L734.32 219.573V347.683ZM772.375 369.654L744.049 353.301L737.537 349.54V221.429L772.375 241.544V369.654ZM886.538 305.598L775.591 369.654V329.427L886.538 265.372V305.598ZM924.594 325.711L889.754 305.598V177.489L924.594 197.602V325.711ZM927.81 327.568V199.459L962.647 219.573V347.683L927.81 327.568ZM964.257 392.553L853.308 328.498L888.147 308.385L999.095 372.439L964.257 392.553ZM1000.7 415.452L889.754 479.509V439.281L926.992 417.781H926.995L965.048 395.811H965.049L1000.7 375.226V415.452ZM889.754 567.392V527.165L1000.7 463.109V503.337L889.754 567.392ZM924.594 721.184L889.754 701.075V572.964L924.594 593.077V721.184ZM927.81 723.046V594.935L962.647 615.048V743.154L927.81 723.046ZM964.257 788.034L853.308 723.969L888.147 703.861L999.095 767.91L964.257 788.034ZM1000.7 810.928L889.754 874.992V834.76L926.992 813.251H926.995L965.048 791.281H965.049L1000.7 770.695V810.928ZM889.754 962.874V922.642L1000.7 858.592V898.81L889.754 962.874ZM204.772 922.642L315.719 858.592V898.81L204.772 962.874V922.642ZM315.719 854.869L204.772 918.933V878.701L315.719 814.636V854.869ZM277.664 615.048V743.154L242.826 723.046V594.935L277.664 615.048ZM235.143 553.572L241.218 550.065L352.165 614.12L317.328 634.233L206.38 570.177L235.143 553.572ZM888.147 436.494L777.2 372.439L812.038 352.327L922.985 416.381L888.147 436.494ZM888.147 831.975L777.2 767.91L812.038 747.802L922.985 811.851L888.147 831.975ZM353.774 790.819V918.933L318.936 898.81V770.695L353.774 790.819ZM356.174 615.52H356.175L394.228 593.55C394.229 593.548 394.23 593.548 394.23 593.548L429.883 572.964V613.19L318.936 677.243V637.018L356.174 615.52ZM279.273 528.094L390.22 592.148L355.381 612.263L244.435 548.206L279.273 528.094ZM318.936 375.226L353.774 395.34V523.45L318.936 503.337V375.226ZM355.381 352.327L466.329 416.381L431.491 436.494L320.543 372.439L355.381 352.327ZM507.601 392.553L396.653 328.498L431.491 308.385L542.438 372.439L507.601 392.553ZM583.71 352.327L694.657 416.381L659.818 436.494L548.872 372.439L583.71 352.327ZM735.928 392.553L624.982 328.498L659.818 308.385L770.767 372.439L735.928 392.553ZM810.43 523.45L775.591 503.337V375.226L810.43 395.34V523.45ZM848.484 545.422L813.646 525.307V397.198L848.484 417.311V545.422ZM886.538 567.392L857.344 550.537L851.701 547.278V419.168L886.538 439.281V567.392ZM886.538 613.19L775.591 677.243V637.018L812.828 615.52C812.828 615.52 812.829 615.52 812.831 615.519L850.884 593.55L850.885 593.548L886.538 572.964V613.19ZM886.538 701.075L775.591 765.125V724.908L886.538 660.848V701.075ZM623.373 814.636L658.211 834.76V962.874L623.373 942.751V814.636ZM585.319 792.666L620.155 812.79V940.903L585.319 920.78V792.666ZM547.263 770.695L582.101 790.819V918.933L547.263 898.81V770.695ZM395.045 814.636L429.883 834.76V962.874L395.045 942.751V814.636ZM391.829 812.79V940.903L356.991 920.78V792.666L391.829 812.79ZM355.381 747.802L466.329 811.851L431.491 831.975L320.543 767.91L355.381 747.802ZM318.936 724.908L429.883 660.848V701.075L318.936 765.125V724.908ZM429.883 657.131L318.936 721.184V680.967L429.883 616.907V657.131ZM429.883 567.392L401.119 550.786L395.045 547.278V419.168L429.883 439.281V567.392ZM582.101 523.45L547.263 503.337V375.226L582.101 395.34V523.45ZM620.155 545.422L585.319 525.307V397.198L620.155 417.311V545.422ZM658.211 567.392L629.017 550.537L623.373 547.278V419.168L658.211 439.281V567.392ZM773.983 634.233L663.036 570.177L691.36 553.824L697.874 550.065L808.821 614.12L773.983 634.233ZM772.375 810.928L661.427 874.992V834.76L698.665 813.251H698.667L736.719 791.281H736.721L772.375 770.695V810.928ZM661.427 878.701L772.375 814.636V854.869L661.427 918.933V878.701ZM393.437 725.831L504.384 789.881L469.546 810.004L358.6 745.94L393.437 725.831ZM467.938 593.077V721.184L433.1 701.075V572.964L467.938 593.077ZM544.047 459.394L433.1 523.45V483.222L544.047 419.168V459.394ZM656.603 570.177L621.764 590.291L510.817 526.235L545.656 506.124L627.408 553.322L656.603 570.177ZM772.375 459.394L661.427 523.45V483.222L772.375 419.168V459.394ZM772.375 503.337L661.427 567.392V527.165L772.375 463.109V503.337ZM696.266 721.184L661.427 701.075V572.964L696.266 593.077V721.184ZM734.32 743.154L699.481 723.046V594.935L734.32 615.048V743.154ZM772.375 765.125L744.049 748.77L737.537 745.016V616.907L772.375 637.018V765.125ZM505.993 615.048V743.154L471.154 723.046V594.935L505.993 615.048ZM463.472 553.572L469.547 550.065L580.493 614.12L545.656 634.233L434.708 570.177L463.472 553.572ZM583.71 612.263L472.763 548.206L507.601 528.094L618.548 592.148L583.71 612.263ZM547.263 724.908L658.211 660.848V701.075L547.263 765.125V724.908ZM658.211 657.131L547.263 721.184V680.967L658.211 616.907V657.131ZM509.209 745.016V616.907L544.047 637.018V765.125L515.284 748.517L509.209 745.016ZM622.558 593.548L658.211 572.964V613.19L547.263 677.243V637.018L584.501 615.52H584.502L622.557 593.55L622.558 593.548ZM433.1 527.165L544.047 463.109V503.337L433.1 567.392V527.165ZM507.601 788.034L396.653 723.969L431.491 703.861L542.438 767.91L507.601 788.034ZM697.874 810.004L586.926 745.94L621.764 725.831L732.711 789.881L697.874 810.004ZM735.928 788.034L624.982 723.969L659.818 703.861L770.767 767.91L735.928 788.034ZM544.047 810.928L433.1 874.992V834.76L470.337 813.251H470.339L508.392 791.281H508.394L544.047 770.695V810.928ZM433.1 878.701L544.047 814.636V854.869L433.1 918.933V878.701ZM548.872 767.91L583.71 747.802L694.657 811.851L659.818 831.975L548.872 767.91ZM886.538 657.131L775.591 721.184V680.967L886.538 616.907V657.131ZM812.038 612.263L701.09 548.206L735.928 528.094L846.875 592.148L812.038 612.263ZM884.93 570.177L850.093 590.291L739.146 526.235L773.983 506.124L855.736 553.322L884.93 570.177ZM698.665 417.781H698.667L736.719 395.811L736.721 395.809L772.375 375.226V415.452L661.427 479.509V439.281L698.665 417.781ZM697.874 414.524L586.926 350.468L621.764 330.355L732.711 394.411L697.874 414.524ZM470.337 417.781H470.339L508.392 395.811L508.394 395.809L544.047 375.226V415.452L433.1 479.509V439.281L470.337 417.781ZM469.546 414.524L358.6 350.468L393.437 330.355L504.384 394.411L469.546 414.524ZM391.829 417.311V545.422L356.991 525.307V397.198L391.829 417.311ZM393.437 590.291L282.49 526.235L317.328 506.124L399.512 553.572L428.275 570.177L393.437 590.291ZM544.047 898.81L433.1 962.874V922.642L544.047 858.592V898.81ZM772.375 898.81L661.427 962.874V922.642L772.375 858.592V898.81ZM810.43 918.933L775.591 898.81V770.695L810.43 790.819V918.933ZM848.484 940.903L813.646 920.78V792.666L848.484 812.79V940.903ZM886.538 834.76V962.874L851.701 942.751V814.636L886.538 834.76ZM280.881 745.016V616.907L315.719 637.018V765.125L286.956 748.517L280.881 745.016ZM1000.7 854.869L889.754 918.933V878.701L1000.7 814.636V854.869ZM926.201 810.004L815.254 745.94L850.093 725.831L961.039 789.881L926.201 810.004ZM1000.7 459.394L889.754 523.45V483.222L1000.7 419.168V459.394ZM926.201 414.524L815.254 350.468L850.093 330.355L961.039 394.411L926.201 414.524ZM279.273 392.553L168.326 328.498L203.163 308.385L314.111 372.439L279.273 392.553ZM204.772 483.222L315.719 419.168V459.394L204.772 523.45V483.222ZM279.273 788.034L168.326 723.969L203.163 703.861L314.111 767.91L279.273 788.034ZM355.381 1007.74L244.435 943.689L279.273 923.565L390.221 987.63L355.381 1007.74ZM393.437 985.768L282.489 921.719L317.328 901.595L428.275 965.66L393.437 985.768ZM583.71 1007.74L472.763 943.689L507.6 923.565L618.548 987.63L583.71 1007.74ZM621.764 985.768L510.817 921.719L545.656 901.595L656.603 965.66L621.764 985.768ZM812.038 1007.74L701.09 943.689L735.928 923.565L846.875 987.63L812.038 1007.74ZM850.093 985.768L739.144 921.719L773.983 901.595L884.93 965.66L850.093 985.768ZM201.556 834.76V962.874L166.717 942.751V814.636L201.556 834.76ZM206.38 965.66L241.218 945.536L352.166 1009.6L317.328 1029.71L206.38 965.66ZM434.708 965.66L469.547 945.536L580.494 1009.6L545.656 1029.71L434.708 965.66ZM663.036 965.66L697.874 945.536L808.823 1009.6L773.983 1029.71L663.036 965.66ZM1002.31 1029.71L891.363 965.66L926.201 945.536L1037.15 1009.6L1002.31 1029.71ZM1114.87 1052.6L1003.92 1116.67V1076.44L1114.87 1012.39V1052.6ZM1040.37 1007.74L929.418 943.689L964.257 923.565L1075.2 987.63L1040.37 1007.74ZM1078.42 985.768L967.473 921.719L1002.31 901.595L1113.26 965.66L1078.42 985.768ZM1114.87 657.131L1003.92 721.184V680.967L1114.87 616.907V657.131ZM1040.37 612.263L929.418 548.206L964.257 528.094L1075.2 592.148L1040.37 612.263ZM1114.87 261.656L1003.92 325.711V285.486L1114.87 221.429V261.656ZM920.557 157.846L926.201 154.589L1037.15 218.644L1002.31 238.757L891.363 174.703L920.557 157.846ZM691.36 158.348L697.874 154.589L808.821 218.644L773.983 238.757L663.036 174.703L691.36 158.348ZM463.472 158.095L469.547 154.589L580.493 218.644L545.656 238.757L434.708 174.703L463.472 158.095ZM235.143 158.095L241.218 154.589L352.165 218.644L317.328 238.757L206.38 174.703L235.143 158.095ZM1114.87 1096.54L1003.92 1160.61V1120.38L1114.87 1056.33V1096.54ZM1079.21 198.072L1114.87 177.489V217.715L1003.92 281.77V241.544L1041.16 220.043H1041.16L1079.21 198.072H1079.21ZM850.885 198.072L886.538 177.489V217.715L775.591 281.77V241.544L812.828 220.044C812.829 220.043 812.831 220.043 812.831 220.043L850.884 198.072H850.885ZM622.558 198.072L658.211 177.489V217.715L547.263 281.77V241.544L584.501 220.043H584.502L622.557 198.072H622.558ZM394.23 198.072L429.883 177.489V217.715L318.936 281.77V241.544L356.174 220.043H356.175L394.228 198.072H394.23ZM127.845 220.043H127.847L165.901 198.072H165.903L201.556 177.489V217.715L90.6075 281.77V241.544L127.845 220.043ZM52.5532 349.54V221.429L87.3916 241.544V369.654L58.6275 353.048L52.5532 349.54ZM127.845 615.52L127.847 615.519L165.901 593.55L165.903 593.548L201.556 572.964V613.19L90.6075 677.243V637.018L127.845 615.52ZM52.5532 745.016V616.907L87.3916 637.018V765.125L58.6275 748.517L52.5532 745.016ZM127.845 1011H127.848L165.901 989.03L201.556 968.445V1008.66L90.6075 1072.73V1032.49L127.845 1011ZM204.772 43.8053L242.01 22.3055L242.011 22.3041L280.064 0.335083L280.066 0.333496L280.644 0H274.211L241.218 19.0494L208.226 0H201.793L238.001 20.9069L203.163 41.02L132.116 0H125.446V127.974L90.6075 107.861V0H87.3916V19.9774L0 70.4336V74.147L87.3916 23.6908V63.9198L0 114.375V118.088L87.3916 67.6333V107.861L0 158.317V162.03L6.81604 158.095L12.8918 154.589L123.837 218.644L89.0003 238.757L0 187.373V191.089L11.2816 197.602V325.711L0 319.199V322.912L85.7829 372.439L50.9445 392.553L0 363.14V366.855L47.7287 394.411L12.8903 414.524L0 407.082V410.796L9.67297 416.381L0 421.966V425.682L13.6827 417.781L51.737 395.811L51.7385 395.809L87.3916 375.226V415.452L0 465.908V469.623L87.3916 419.168V459.394L0 509.849V513.565L87.3916 463.109V503.337L0 553.791V557.508L6.81604 553.572L12.8918 550.065L123.837 614.12L89.0003 634.233L0 582.849V586.564L11.2816 593.077V721.184L0 714.675V718.383L85.7829 767.91L50.9445 788.034L0 758.616V762.324L47.7287 789.881L12.8903 810.004L0 802.557V806.281L9.67297 811.851L0 817.437V821.161L13.6827 813.251L51.737 791.281H51.7385L87.3916 770.695V810.928L0 861.378V865.102L87.3916 814.636V854.869L0 905.334V909.042L87.3916 858.592V898.81L0 949.275V952.983L12.8918 945.536L123.837 1009.6L89.0003 1029.71L0 978.32V982.044L11.2816 988.553V1116.67L0 1110.16V1113.87L85.7829 1163.39L50.9445 1183.5L0 1154.1V1157.81L47.7287 1185.36L17.1742 1203H23.6074L51.734 1186.76C51.737 1186.76 51.7385 1186.76 51.7415 1186.76L87.3916 1166.18V1203H90.6075V1166.18L125.446 1186.29V1203H128.663V1188.15L154.392 1203H160.823L92.2162 1163.39L127.055 1143.29L230.5 1203H236.934L130.27 1141.42L165.109 1121.31L276.057 1185.36L245.503 1203H251.936L280.061 1186.76C280.064 1186.76 280.066 1186.76 280.069 1186.76L315.719 1166.18V1203H318.936V1166.18L353.774 1186.29V1203H356.991V1188.15L382.72 1203H389.152L320.543 1163.39L355.381 1143.29L458.828 1203H465.261L358.598 1141.42L393.436 1121.31L504.385 1185.36L473.831 1203H480.264L508.389 1186.76C508.389 1186.76 508.394 1186.76 508.396 1186.76L544.047 1166.18V1203H547.263V1166.18L582.101 1186.29V1203H585.319V1188.15L611.047 1203H617.48L548.872 1163.39L583.71 1143.29L687.156 1203H693.589L586.926 1141.42L621.764 1121.31L732.711 1185.36L702.158 1203H708.591L736.716 1186.76C736.719 1186.76 736.724 1186.76 736.724 1186.76L772.375 1166.18V1203H775.591V1166.18L810.43 1186.29V1203H813.646V1188.15L839.375 1203H845.807L777.2 1163.39L812.038 1143.29L915.484 1203H921.916L815.253 1141.42L850.093 1121.31L961.039 1185.36L930.486 1203H936.92L965.045 1186.76C965.045 1186.76 965.049 1186.76 965.052 1186.76L1000.7 1166.18V1203H1003.92V1166.18L1038.76 1186.29V1203H1041.97V1188.15L1067.7 1203H1074.14L1005.53 1163.39L1040.37 1143.29L1143.81 1203H1150.24L1043.58 1141.42L1078.42 1121.31L1189.37 1185.36L1158.81 1203H1165.25L1193.37 1186.76C1193.37 1186.76 1193.38 1186.76 1193.38 1186.76L1203 1181.21V1177.5L1192.58 1183.5L1081.64 1119.45L1116.47 1099.33L1203 1149.29V1145.58L1194.19 1140.5V1012.39L1203 1017.46V1013.76L1119.69 965.66L1154.53 945.536L1203 973.524V969.815L1157.75 943.689L1192.58 923.565L1203 929.583V925.874L1195.8 921.719L1203 917.562V913.839L1118.08 962.874V922.642L1203 873.607V869.898L1118.08 918.933V878.701L1203 829.666V825.957L1118.08 874.992V834.76L1155.32 813.251L1193.37 791.281H1193.38L1203 785.725V782.016L1192.58 788.034L1081.64 723.969L1116.47 703.861L1203 753.819V750.095L1199.83 748.278L1194.19 745.016V616.907L1203 621.992V618.276L1119.69 570.177L1148.89 553.322L1154.53 550.065L1203 578.05V574.335L1157.75 548.206L1192.58 528.094L1203 534.109V530.392L1195.8 526.235L1203 522.079V518.365L1118.08 567.392V527.165L1203 478.137V474.422L1118.08 523.45V483.222L1203 434.195V430.481L1118.08 479.509V439.281L1155.32 417.781L1193.37 395.811L1193.38 395.809L1203 390.254V386.539L1192.58 392.553L1081.64 328.498L1116.47 308.385L1203 358.341V354.626L1199.83 352.799L1194.19 349.54V221.429L1203 226.515V222.801L1119.69 174.703L1148.89 157.846L1154.53 154.589L1203 182.574V178.859L1157.75 152.731L1192.58 132.618L1203 138.631V134.918L1195.8 130.761L1203 126.603V122.889L1118.08 171.915V131.689L1203 82.661V78.946L1118.08 127.974V87.7478L1203 38.7201V35.0037L1118.08 84.0314V43.8053L1155.32 22.3055V22.3041L1193.37 0.335083L1193.38 0.333496L1193.96 0H1187.52L1154.53 19.0494L1121.54 0H1115.1L1151.31 20.9069L1116.47 41.02L1045.43 0H1038.76V127.974L1003.92 107.861V0H1000.7V19.9774L889.754 84.0314V43.8053L926.992 22.3055C926.992 22.3055 926.994 22.3056 926.995 22.3041L965.048 0.335083L965.049 0.333496L965.627 0H959.194L926.201 19.0494L893.21 0H886.775L922.985 20.9069L888.147 41.02L817.1 0H810.43V127.974L775.591 107.861V0H772.375V19.9774L661.427 84.0314V43.8053L698.665 22.3055L698.667 22.3041L736.719 0.335083L736.721 0.333496L737.3 0H730.867L697.874 19.0494L664.881 0H658.448L694.657 20.9069L659.818 41.02L588.771 0H582.101V127.974L547.263 107.861V0H544.047V19.9774L433.1 84.0314V43.8053L470.337 22.3055L470.339 22.3041L508.392 0.335083L508.394 0.333496L508.972 0H502.538L469.546 19.0494L436.553 0H430.12L466.329 20.9069L431.491 41.02L360.443 0H353.774V127.974L318.936 107.861V0H315.719V19.9774L204.772 84.0314V43.8053Z" fill="#1A1A1A"/>
</g>
<defs>
<radialGradient id="paint0_radial_1740_1074" cx="0" cy="0" r="1" gradientUnits="userSpaceOnUse" gradientTransform="translate(779.5 83.9102) rotate(90) scale(432.09 676.252)">
<stop stop-color="#28C667"/>
<stop offset="1" stop-color="#2BCD6C" stop-opacity="0"/>
</radialGradient>
</defs>
</svg>
