<svg width="222" height="222" viewBox="0 0 222 222" fill="none" xmlns="http://www.w3.org/2000/svg">
<rect width="222" height="222" rx="56.6325" fill="#333333"/>
<path fill-rule="evenodd" clip-rule="evenodd" d="M139.368 72.7354C137.244 72.7354 135.281 73.8687 134.218 75.7085L117.838 104.078C116.748 105.965 118.11 108.325 120.29 108.325L188.539 108.325C193.117 108.325 195.978 103.37 193.689 99.4054L180.006 75.7085C178.944 73.8687 176.981 72.7354 174.857 72.7354L139.368 72.7354ZM92.1331 67.4043C91.071 69.2441 91.0709 71.5108 92.1331 73.3505L108.512 101.721C109.602 103.609 112.327 103.609 113.416 101.722L147.541 42.6159C149.83 38.6517 146.969 33.6963 142.391 33.6963L115.027 33.6963C112.903 33.6963 110.94 34.8297 109.878 36.6695L92.1331 67.4043ZM64.046 105.67C65.1082 107.51 67.0713 108.644 69.1958 108.644L101.955 108.644C104.135 108.644 105.497 106.284 104.407 104.396L70.2823 45.2906C67.9935 41.3264 62.2716 41.3264 59.9828 45.2907L46.3015 68.9877C45.2394 70.8274 45.2393 73.0941 46.3015 74.9339L64.046 105.67ZM82.877 148.948C85.0013 148.948 86.9644 147.814 88.0266 145.975L104.407 117.605C105.497 115.718 104.135 113.358 101.955 113.358L33.7056 113.356C29.1279 113.356 26.2668 118.312 28.5557 122.276L42.2385 145.975C43.3007 147.814 45.2637 148.948 47.3882 148.948L82.877 148.948ZM129.795 154.595C130.857 152.756 130.857 150.489 129.795 148.649L113.416 120.278C112.326 118.39 109.602 118.39 108.512 120.278L74.387 179.384C72.0982 183.348 74.9592 188.303 79.5368 188.303L106.901 188.303C109.025 188.303 110.988 187.17 112.051 185.33L129.795 154.595ZM158.199 116.329C157.137 114.489 155.174 113.356 153.049 113.356L120.29 113.356C118.11 113.356 116.748 115.716 117.838 117.603L151.963 176.709C154.251 180.673 159.973 180.673 162.262 176.709L175.943 153.012C177.006 151.172 177.006 148.906 175.943 147.066L158.199 116.329Z" fill="url(#paint0_linear_1740_1057)"/>
<defs>
<linearGradient id="paint0_linear_1740_1057" x1="94.9996" y1="148.5" x2="134.618" y2="65.007" gradientUnits="userSpaceOnUse">
<stop stop-color="#A4F5B9"/>
<stop offset="1" stop-color="#FFD058"/>
</linearGradient>
</defs>
</svg>
